<svg width="24" height="23" viewBox="0 0 24 23" fill="none" xmlns="http://www.w3.org/2000/svg">
<path d="M20.2502 12.2962H7.22649L5.63434 4.33545H21.5557C21.6723 4.33588 21.7871 4.36183 21.8925 4.41151C21.9977 4.46116 22.0908 4.53334 22.1652 4.62291C22.2397 4.71247 22.2935 4.81728 22.323 4.92991C22.3524 5.04255 22.3569 5.16027 22.3359 5.27481L21.0303 11.6434C20.9999 11.8275 20.9044 11.9946 20.7612 12.1144C20.6181 12.2342 20.4368 12.2987 20.2502 12.2962Z" stroke="black" stroke-width="1.71" stroke-linecap="round" stroke-linejoin="round"/>
<path d="M5.63434 4.33541L4.96564 1.78798C4.92894 1.60817 4.83123 1.44656 4.68907 1.33051C4.54691 1.21446 4.36902 1.15108 4.18549 1.15112H1.65399" stroke="black" stroke-width="1.71" stroke-linecap="round" stroke-linejoin="round"/>
<path d="M7.22648 12.2961L7.89518 15.6396C7.93188 15.8195 8.02959 15.9811 8.17176 16.0971C8.31392 16.2132 8.49182 16.2765 8.67533 16.2765H18.3714" stroke="black" stroke-width="1.71" stroke-linecap="round" stroke-linejoin="round"/>
<path d="M17.5754 21.849C17.1358 21.849 16.7793 21.4925 16.7793 21.0529C16.7793 20.6133 17.1358 20.2568 17.5754 20.2568C18.0151 20.2568 18.3714 20.6133 18.3714 21.0529C18.3714 21.4925 18.0151 21.849 17.5754 21.849Z" stroke="black" stroke-width="1.71" stroke-linecap="round" stroke-linejoin="round"/>
<path d="M9.6147 21.849C9.17504 21.849 8.81863 21.4925 8.81863 21.0529C8.81863 20.6133 9.17504 20.2568 9.6147 20.2568C10.0544 20.2568 10.4108 20.6133 10.4108 21.0529C10.4108 21.4925 10.0544 21.849 9.6147 21.849Z" stroke="black" stroke-width="1.71" stroke-linecap="round" stroke-linejoin="round"/>
</svg>
