<svg width="24" height="23" viewBox="0 0 24 23" fill="none" xmlns="http://www.w3.org/2000/svg">
<path d="M12 13.0923C14.1983 13.0923 15.9804 11.3102 15.9804 9.11195C15.9804 6.91366 14.1983 5.13159 12 5.13159C9.80171 5.13159 8.01964 6.91366 8.01964 9.11195C8.01964 11.3102 9.80171 13.0923 12 13.0923Z" stroke="black" stroke-width="1.71" stroke-linecap="round" stroke-linejoin="round"/>
<path d="M5.20152 19.3014C5.91199 18.1352 6.91054 17.1713 8.10114 16.5026C9.29175 15.8337 10.6344 15.4824 12 15.4824C13.3656 15.4824 14.7082 15.8337 15.8988 16.5026C17.0894 17.1713 18.0879 18.1352 18.7984 19.3014" stroke="black" stroke-width="1.71" stroke-linecap="round" stroke-linejoin="round"/>
<path d="M12 21.849C17.7156 21.849 22.3489 17.2157 22.3489 11.5001C22.3489 5.7845 17.7156 1.15112 12 1.15112C6.28444 1.15112 1.65107 5.7845 1.65107 11.5001C1.65107 17.2157 6.28444 21.849 12 21.849Z" stroke="black" stroke-width="1.71" stroke-linecap="round" stroke-linejoin="round"/>
</svg>
